<?xml version="1.0" standalone="no"?>
<!DOCTYPE svg PUBLIC "-//W3C//DTD SVG 20010904//EN"
 "http://www.w3.org/TR/2001/REC-SVG-20010904/DTD/svg10.dtd">
<svg version="1.0" xmlns="http://www.w3.org/2000/svg"
 width="1006.000000pt" height="1006.000000pt" viewBox="0 0 1006.000000 1006.000000"
 preserveAspectRatio="xMidYMid meet">
<metadata>
Created by potrace 1.14, written by Peter Selinger 2001-2017
</metadata>
<g transform="translate(0.000000,1006.000000) scale(0.100000,-0.100000)"
fill="#000000" stroke="none">
<path d="M5045 10040 c-3 -6 -9 -22 -11 -37 -3 -15 -8 -31 -12 -37 -3 -6 -8
-20 -9 -31 -2 -11 -8 -24 -13 -29 -6 -6 -10 -17 -10 -26 0 -10 -7 -31 -15 -48
-9 -17 -18 -41 -20 -54 -3 -13 -9 -32 -14 -43 -5 -11 -21 -56 -36 -100 -15
-44 -29 -87 -33 -95 -3 -8 -6 -17 -7 -20 -1 -3 -4 -12 -8 -20 -3 -8 -13 -37
-22 -65 -10 -27 -21 -59 -26 -70 -4 -11 -30 -85 -57 -165 -27 -80 -57 -162
-65 -183 -9 -20 -16 -40 -17 -42 0 -3 0 -6 -1 -7 0 -2 -2 -10 -4 -18 -3 -12
-93 -270 -112 -320 -3 -8 -7 -19 -9 -25 -1 -5 -19 -55 -39 -110 -31 -83 -45
-124 -60 -175 -1 -3 -5 -12 -8 -20 -23 -53 -54 -150 -49 -154 3 -3 -1 -6 -8
-6 -7 0 -11 -3 -7 -6 4 -5 -22 -88 -50 -154 -3 -8 -7 -17 -8 -20 -5 -20 -31
-97 -53 -155 -14 -38 -27 -74 -28 -80 -1 -5 -6 -21 -12 -35 -5 -14 -10 -27
-10 -30 -1 -3 -22 -63 -48 -135 -25 -71 -49 -139 -52 -150 -2 -11 -8 -24 -12
-30 -4 -5 -13 -34 -21 -62 -7 -29 -16 -53 -21 -53 -4 0 -8 -11 -8 -23 0 -13
-3 -27 -7 -31 -4 -3 -8 -12 -9 -19 -2 -7 -23 -68 -47 -137 -24 -69 -47 -132
-50 -140 -2 -8 -13 -37 -23 -65 -10 -27 -19 -53 -20 -57 -1 -5 -2 -9 -4 -10
-1 -2 -3 -10 -5 -18 -3 -8 -34 -98 -70 -200 -36 -102 -68 -192 -70 -200 -2 -8
-9 -28 -16 -45 -7 -16 -12 -33 -11 -37 1 -5 -2 -8 -7 -8 -6 0 -8 -9 -6 -20 2
-11 0 -20 -4 -20 -5 0 -12 -15 -16 -32 -8 -36 -11 -45 -15 -53 -1 -3 -3 -8 -4
-12 -1 -5 -8 -19 -16 -33 -7 -14 -12 -25 -10 -25 4 0 -8 -42 -20 -70 -4 -11
-15 -40 -23 -65 -9 -25 -43 -124 -77 -220 -61 -173 -69 -198 -70 -203 0 -1
-14 -38 -31 -82 -17 -44 -31 -87 -32 -95 -2 -8 -8 -25 -15 -37 -7 -13 -10 -23
-7 -23 3 0 -1 -13 -10 -30 -9 -16 -13 -30 -10 -30 3 0 -1 -13 -10 -30 -8 -16
-15 -31 -15 -32 2 -4 -9 -34 -27 -78 -14 -34 -18 -45 -28 -92 -2 -12 -8 -24
-12 -27 -7 -6 -10 -12 -18 -51 -3 -15 -60 -180 -72 -210 -4 -8 -7 -17 -8 -20
-1 -3 -4 -12 -8 -20 -11 -28 -79 -224 -82 -234 -1 -6 -5 -18 -8 -26 -36 -96
-62 -167 -64 -177 -2 -7 -4 -20 -6 -28 -2 -8 -6 -18 -10 -21 -4 -4 -7 -16 -7
-26 0 -10 -4 -18 -10 -18 -5 0 -9 -3 -8 -7 4 -13 -56 -187 -67 -195 -5 -4 -7
-8 -3 -8 4 0 -1 -24 -12 -53 -65 -175 -163 -454 -164 -467 -1 -8 -7 -25 -14
-36 -6 -12 -8 -24 -5 -28 3 -3 0 -6 -7 -6 -7 0 -11 -3 -7 -6 3 -3 -3 -29 -15
-58 -11 -28 -21 -56 -22 -63 -1 -7 -5 -16 -9 -19 -4 -4 -7 -13 -7 -20 0 -7 -5
-25 -12 -41 -6 -15 -12 -30 -13 -33 -20 -68 -30 -97 -35 -105 -4 -5 -10 -22
-14 -37 -5 -24 -4 -26 16 -22 13 2 37 6 55 8 18 3 40 7 50 10 10 2 34 7 53 10
19 3 49 9 65 12 17 4 42 7 58 8 15 0 27 4 27 8 0 4 8 6 18 6 20 -1 73 9 152
27 3 1 30 5 60 10 60 10 69 11 73 15 1 1 13 3 27 5 14 2 36 6 50 9 13 3 42 8
65 11 22 3 47 8 55 10 8 2 29 7 45 9 17 3 55 10 85 16 67 14 82 16 190 36 47
9 94 18 105 20 11 2 55 11 98 19 44 8 83 17 88 21 5 3 9 -1 9 -8 0 -9 3 -10 8
-2 4 6 27 15 52 19 25 4 54 9 65 12 11 2 34 6 50 8 17 2 31 5 33 6 3 3 12 4
92 18 41 7 84 15 95 18 11 3 31 6 45 8 14 2 25 4 25 5 0 2 14 4 30 5 17 2 30
4 30 5 0 1 7 3 15 5 51 10 89 17 115 20 17 2 30 4 30 5 0 2 9 4 20 6 11 1 31
5 45 8 13 3 42 8 65 12 48 7 70 12 70 14 0 1 11 4 25 5 46 7 75 12 110 20 19
4 46 9 60 11 14 1 26 3 28 4 1 1 7 4 12 5 6 1 11 3 13 5 1 1 18 3 37 4 19 1
44 5 55 9 11 3 36 8 55 11 19 3 46 8 60 11 14 2 72 13 130 24 58 11 166 32
240 46 74 14 151 28 170 31 19 3 42 7 50 9 8 3 33 7 55 11 22 3 42 7 45 9 3 2
26 6 50 10 25 3 64 11 88 16 24 5 48 7 53 4 5 -4 9 -2 9 3 0 5 6 9 13 9 6 0
26 3 42 7 17 3 47 8 69 11 21 4 48 9 60 11 47 11 107 22 156 30 19 3 42 7 50
9 8 3 32 7 54 11 21 3 48 8 60 11 11 2 34 6 51 9 16 2 38 7 48 10 10 3 32 7
50 10 18 2 55 8 82 14 28 5 61 12 75 14 14 3 36 7 50 10 13 3 40 8 60 11 20 3
47 8 60 10 14 3 39 8 55 11 17 4 36 7 43 7 6 0 12 4 12 9 0 5 4 7 9 4 5 -3 33
-1 62 5 30 6 63 12 74 13 11 2 29 6 40 9 11 3 40 9 65 12 25 3 52 8 60 10 8 2
31 7 50 10 19 3 54 10 78 16 23 5 59 12 78 15 20 3 46 8 58 10 11 2 35 6 51 9
30 5 56 10 105 21 14 2 39 7 55 9 17 3 39 7 50 9 11 2 58 11 105 20 47 9 95
18 106 20 30 6 95 18 119 21 11 2 21 4 23 5 1 2 10 3 20 4 9 1 23 5 30 10 7 4
16 6 18 3 3 -2 22 -1 42 4 20 5 54 12 76 14 21 3 45 10 52 16 8 6 14 7 14 2 0
-6 19 -5 48 2 26 7 64 15 82 18 19 3 49 8 65 12 17 3 68 13 115 21 47 9 94 18
105 20 11 2 36 7 55 10 19 4 44 9 55 11 11 2 54 10 95 18 41 7 86 16 100 19
94 18 310 58 332 61 15 2 31 6 36 9 5 3 29 8 53 11 24 3 59 9 78 13 30 6 32 9
20 22 -8 8 -43 49 -79 90 -36 41 -67 77 -70 80 -3 3 -34 40 -70 83 -35 42 -68
77 -72 77 -4 0 -8 4 -8 9 0 8 -45 63 -92 112 -9 10 -14 20 -10 23 3 3 1 6 -5
6 -5 0 -39 35 -75 78 -36 42 -76 88 -88 102 -12 14 -31 36 -43 50 -12 14 -60
70 -107 125 -95 111 -130 152 -145 169 -6 6 -33 38 -60 71 -28 32 -57 66 -65
75 -8 9 -33 38 -55 64 -22 27 -51 61 -65 76 -14 15 -41 47 -61 71 -38 45 -75
88 -107 124 -10 11 -43 49 -73 84 -30 36 -61 72 -69 81 -19 21 -109 126 -132
154 -58 70 -232 271 -270 311 -21 22 -38 43 -38 47 0 3 -15 22 -32 41 -18 19
-53 58 -78 88 -25 29 -56 66 -70 81 -14 15 -39 45 -57 65 -17 21 -42 49 -53
63 -12 14 -40 47 -63 74 -23 27 -46 54 -52 60 -5 6 -35 40 -65 76 -80 94 -103
120 -125 146 -11 12 -40 46 -65 75 -25 30 -55 64 -67 76 -12 13 -20 23 -18 23
2 0 -6 10 -18 23 -12 12 -42 47 -67 76 -25 30 -50 59 -55 65 -6 6 -35 40 -65
76 -30 36 -57 67 -61 70 -3 3 -47 55 -99 115 -51 61 -96 112 -99 115 -3 3 -31
34 -61 70 -30 36 -57 67 -60 70 -3 3 -27 32 -54 65 -28 33 -57 67 -65 76 -9 8
-35 38 -58 65 -23 27 -50 59 -60 70 -10 12 -36 43 -58 69 -22 27 -51 60 -65
75 -14 15 -43 49 -65 76 -22 26 -47 55 -55 64 -8 9 -37 43 -64 75 -28 33 -57
67 -65 76 -9 9 -35 39 -58 66 -24 28 -56 65 -73 83 -16 18 -30 35 -30 39 0 3
-19 27 -43 52 -61 67 -97 109 -137 158 -19 23 -46 55 -60 70 -14 15 -47 54
-75 86 -27 33 -57 66 -65 75 -16 17 -118 136 -135 158 -5 7 -22 26 -38 43 -15
17 -46 54 -70 82 -23 27 -51 60 -62 73 -11 12 -29 33 -39 46 -166 201 -252
292 -261 278z"/>
</g>
</svg>
